<?xml version="1.0" encoding="UTF-8"?>
<!DOCTYPE svg PUBLIC "-//W3C//DTD SVG 1.1//EN" "http://www.w3.org/Graphics/SVG/1.1/DTD/svg11.dtd">
<!-- Creator: CorelDRAW 2019 (64-Bit) -->
<svg xmlns="http://www.w3.org/2000/svg" xml:space="preserve" width="2000px" height="1500px" version="1.1" style="shape-rendering:geometricPrecision; text-rendering:geometricPrecision; image-rendering:optimizeQuality; fill-rule:evenodd; clip-rule:evenodd"
viewBox="0 0 2000 1500"
 xmlns:xlink="http://www.w3.org/1999/xlink"
 xmlns:xodm="http://www.corel.com/coreldraw/odm/2003">
 <defs>
  <style type="text/css">
   <![CDATA[
    .str2 {stroke:black;stroke-width:4;stroke-miterlimit:22.9256}
    .str3 {stroke:black;stroke-width:8;stroke-miterlimit:22.9256}
    .str1 {stroke:black;stroke-width:5;stroke-miterlimit:22.9256}
    .str0 {stroke:black;stroke-width:2.36;stroke-miterlimit:22.9256}
    .fil3 {fill:none}
    .fil0 {fill:#5FC2EE}
    .fil6 {fill:black}
    .fil4 {fill:black}
    .fil2 {fill:#990000}
    .fil1 {fill:white}
    .fil5 {fill:white}
   ]]>
  </style>
   <clipPath id="id0">
    <rect x="4037" y="314" width="1407.22" height="1104"/>
   </clipPath>
 </defs>
 <g id="Слой_x0020_1">
  <metadata id="CorelCorpID_0Corel-Layer"/>
  <rect class="fil0 str0" x="2826.43" y="192.23" width="270" height="302.5"/>
  <g style="clip-path:url(#id0)">
   <image x="4037" y="314" width="1407.22" height="1104" xlink:href="5 - chikens (2)_Images\5 - chikens (2)_ImgID1.png"/>
  </g>
  <g id="_2252101154992">
   <path class="fil1" d="M2854.38 457.51c3.94,14.63 11.07,33.43 29.2,46.3 18.13,12.88 47.27,19.85 68.75,17.42 21.48,-2.43 35.31,-14.26 44.11,-22.45 8.81,-8.19 12.6,-12.75 9.41,-15.32 -3.19,-2.57 -13.36,-3.15 -11.97,-4.69 1.39,-1.54 14.35,-4.02 14.11,-5.15 -0.24,-1.12 -13.69,-0.89 -30.75,-8.56 -17.05,-7.68 -37.73,-23.25 -53.83,-33.5 -16.09,-10.26 -27.6,-15.18 -34.88,-20.75 -7.28,-5.56 -10.34,-11.77 -13.29,-16.6 -2.96,-4.83 -5.81,-8.29 -9.16,-10.47 -1.93,-1.26 -4.03,-2.09 -6.21,-2.49 -0.99,0.49 -2.06,0.72 -3.12,0.85 -1.16,0.15 -2.3,0.19 -3.06,-0.03 -0.41,-0.12 -0.71,-0.32 -0.93,-0.58 -3.19,0.77 -6.34,2.42 -9.08,4.95 -2.99,2.77 -5.48,6.59 -6.61,10.55 -0.09,0.55 -0.18,1.12 -0.26,1.69 -0.17,1.25 -0.3,2.5 -0.41,3.66 0.09,2.5 0.72,4.95 1.81,7.25 0.54,0.26 0.81,0.92 0.92,1.72 0.01,0.02 0.02,0.03 0.02,0.04 2.35,3.92 6.08,7.25 8.32,14.15 2.24,6.9 2.98,17.37 6.91,32.01zm3.14 -64.24c3.94,0.65 6.56,4.7 5.85,9.03 -0.72,4.34 -4.49,7.33 -8.44,6.68 -3.94,-0.65 -6.56,-4.69 -5.84,-9.03 0.71,-4.33 4.49,-7.33 8.43,-6.68zm85.69 93.84c-0.24,-0.12 -0.47,-0.24 -0.7,-0.37 -2.73,-1.57 -4.84,-3.86 -5.15,-4.39 -0.32,-0.52 1.15,0.73 2.86,2.13 1.01,0.83 2.1,1.71 2.99,2.63z"/>
   <g>
    <path class="fil2 str0" d="M2853.69 382.07c-0.75,-0.22 -1.11,-0.69 -1.36,-1.34 -0.24,-0.65 -0.38,-1.49 -0.49,-2.46 -0.11,-0.97 -0.2,-2.07 -0.12,-3.41 0.09,-1.34 0.35,-2.93 0.87,-4.47 0.53,-1.55 1.32,-3.05 2.4,-4.63 1.07,-1.59 2.43,-3.27 3.86,-4.53 1.43,-1.25 2.93,-2.09 4.16,-2.16 1.24,-0.07 2.21,0.63 2.76,2.22 0.56,1.58 0.69,4.05 1.05,6.01 0.36,1.96 0.93,3.41 1.81,3.83 0.88,0.41 2.07,-0.21 3.11,-0.72 1.03,-0.5 1.91,-0.9 2.9,-0.33 0.99,0.57 2.1,2.11 1.77,3.28 -0.33,1.16 -2.09,1.96 -3.69,2.65 -1.61,0.68 -3.06,1.26 -4.63,1.68 -1.56,0.42 -3.23,0.69 -4.55,1.29 -1.32,0.59 -2.29,1.52 -3.36,2.12 -1.08,0.59 -2.26,0.85 -3.43,1 -1.16,0.15 -2.3,0.19 -3.06,-0.03z"/>
    <path class="fil2 str0" d="M2834.82 390.94c-3.11,-0.56 -9.23,-1.67 -12.05,-2.05 -2.81,-0.37 -2.33,-0.02 -0.65,1.33 1.68,1.34 4.56,3.69 6.35,5.2 1.79,1.52 2.48,2.21 2.52,2.77 0.05,0.57 -0.57,1.01 -1.76,1.63 -1.19,0.62 -2.95,1.41 -4.55,2.1 -1.61,0.69 -3.06,1.26 -3.79,1.55 -0.72,0.29 -0.72,0.29 0.05,0.55 0.77,0.26 2.31,0.79 4.25,1.38 1.94,0.59 4.28,1.25 6.14,1.84 1.87,0.59 3.27,1.11 3.99,0.88 0.72,-0.23 0.75,-1.2 0.86,-2.91 0.12,-1.7 0.3,-4.13 0.63,-6.53 0.34,-2.4 0.81,-4.75 1.01,-5.95 0.19,-1.19 0.1,-1.22 -3,-1.79z"/>
    <path class="fil2 str0" d="M2837.7 409.46c-1.41,-0.05 -4.03,1.89 -6.03,3.69 -1.99,1.8 -3.35,3.48 -4.32,5.22 -0.96,1.75 -1.53,3.55 -1.75,5.69 -0.21,2.14 -0.07,4.6 0.59,6.34 0.66,1.74 1.86,2.75 2.91,2.93 1.06,0.17 1.98,-0.49 3.1,-2.35 1.12,-1.85 2.44,-4.89 3.36,-7.18 0.92,-2.29 1.45,-3.84 2.04,-5.42 0.6,-1.57 1.28,-3.18 1.5,-5 0.23,-1.83 0.02,-3.86 -1.4,-3.92z"/>
    <path class="fil3 str1" d="M3007.99 473.62c-0.24,-1.12 -13.69,-0.89 -30.75,-8.56 -17.05,-7.68 -37.73,-23.25 -53.83,-33.5 -16.09,-10.26 -27.6,-15.18 -34.88,-20.75 -7.28,-5.56 -10.34,-11.77 -13.29,-16.6 -2.96,-4.83 -5.81,-8.29 -9.16,-10.47 -3.34,-2.18 -7.19,-3.08 -11.11,-2.64 -3.92,0.44 -7.92,2.22 -11.29,5.34 -3.36,3.11 -6.09,7.55 -6.97,12.02 -0.88,4.47 0.1,8.98 2.44,12.89 2.35,3.92 6.08,7.25 8.32,14.15 2.24,6.9 2.98,17.37 6.91,32.01 3.94,14.63 11.07,33.43 29.2,46.3 18.13,12.88 47.27,19.85 68.75,17.42 21.48,-2.43 35.31,-14.26 44.11,-22.45 8.81,-8.19 12.6,-12.75 9.41,-15.32 -3.19,-2.57 -13.36,-3.15 -11.97,-4.69 1.39,-1.54 14.35,-4.02 14.11,-5.15z"/>
    <path class="fil3 str1" d="M2880.4 440.52c1.26,7.73 2.53,15.45 4.45,22.39 1.92,6.94 4.51,13.1 7.64,18.15 3.13,5.04 6.79,8.97 10.66,12.06 3.87,3.09 7.95,5.33 11.58,6.49 3.63,1.16 6.82,1.23 10,1.3 3.19,0.06 6.37,0.13 9.05,-0.28 2.68,-0.41 4.86,-1.3 6.57,-2.49 1.71,-1.18 2.96,-2.65 3.79,-4.23 0.83,-1.58 1.24,-3.26 0.48,-4.87 -0.76,-1.62 -2.7,-3.16 -4.4,-4.56 -1.71,-1.4 -3.18,-2.65 -2.86,-2.13 0.31,0.53 2.42,2.82 5.15,4.39 2.74,1.56 6.09,2.38 8.44,2.25 2.35,-0.14 3.68,-1.24 4.93,-2.72 1.25,-1.47 2.41,-3.32 4.17,-4.32 1.75,-1 4.1,-1.13 5.81,-1.62 1.71,-0.49 2.79,-1.33 2.53,-2.47 -0.26,-1.13 -1.85,-2.55 -3.97,-4.75 -2.12,-2.19 -4.78,-5.16 -7.26,-7.37 -2.48,-2.21 -4.8,-3.67 -7.48,-5.13 -2.68,-1.46 -5.73,-2.92 -8.48,-3.68 -2.75,-0.77 -5.19,-0.84 -7.64,-0.9"/>
    <ellipse class="fil4 str0" transform="matrix(0.714031 0.117499 -0.117499 0.714031 2856.23 401.128)" rx="10" ry="11"/>
   </g>
  </g>
  <g id="_2252101151280">
   <path class="fil5" d="M1905.28 331.89c0,4.14 -3.01,7.5 -6.73,7.5 -3.72,0 -6.74,-3.36 -6.74,-7.5 0,-4.14 3.02,-7.5 6.74,-7.5 3.72,0 6.73,3.36 6.73,7.5zm62.03 70.38c-0.18,-0.12 -0.37,-0.25 -0.55,-0.38 -2.16,-1.57 -3.75,-3.73 -3.98,-4.2 -0.23,-0.48 0.91,0.72 2.23,2.06 0.79,0.8 1.64,1.65 2.3,2.52zm2.09 -46.57c-2.63,-1.36 -5.17,-2.65 -7.6,-3.83 -15.19,-7.38 -25.72,-10.32 -32.72,-14.56 -7,-4.24 -10.49,-9.77 -13.69,-13.98 -3.2,-4.22 -6.13,-7.12 -9.29,-8.7 -3.17,-1.58 -6.58,-1.84 -9.87,-0.79 -1.12,0.36 -2.23,0.87 -3.3,1.54 -0.38,0.34 -0.73,0.66 -1.06,0.96 -0.63,0.58 -1.19,1.1 -1.8,1.26 -0.98,0.93 -1.9,2.01 -2.73,3.22 -2.36,3.44 -4.03,7.98 -4.25,12.32 0.03,1.03 0.16,2.22 0.44,3.59 0.4,1.95 1.11,4.3 1.48,5.77 0.12,0.26 0.25,0.51 0.39,0.76 0.37,-0.6 0.79,-0.69 1.71,1.12 0.4,0.79 0.89,1.95 1.42,3.23 2.35,2.67 5.2,5.37 7.53,10.51 2.88,6.34 4.99,16.38 10.41,29.95 5.42,13.57 14.16,30.67 31.46,40.27 9.02,5.01 20.36,7.97 31.7,8.85 0.16,-1.32 0.29,-2.2 0.29,-2.21l0.36 -1.88c-0.28,-1.31 -0.51,-2.26 -0.54,-2.91l-0.94 -8.44 0.6 -66.05z"/>
   <g>
    <g>
     <path class="fil3 str1" d="M1969.4 355.7c-2.63,-1.36 -5.17,-2.65 -7.6,-3.83 -15.19,-7.38 -25.72,-10.32 -32.72,-14.56 -7,-4.24 -10.49,-9.77 -13.69,-13.98 -3.2,-4.22 -6.13,-7.12 -9.29,-8.7 -3.17,-1.58 -6.58,-1.84 -9.87,-0.79 -3.29,1.06 -6.46,3.43 -8.89,6.98 -2.44,3.56 -4.15,8.3 -4.27,12.78 -0.12,4.48 1.34,8.7 3.9,12.12 2.56,3.43 6.21,6.06 9.09,12.4 2.88,6.34 4.99,16.38 10.41,29.95 5.42,13.57 14.16,30.67 31.46,40.27 9.02,5.01 20.36,7.97 31.7,8.85 0.16,-1.32 0.29,-2.2 0.29,-2.21l0.36 -1.88c-0.28,-1.31 -0.51,-2.26 -0.54,-2.91l-0.94 -8.44 0.6 -66.05z"/>
     <path class="fil2 str0" d="M1880.54 330.03c-3.02,1.41 -9.37,5.36 -12.54,7.34 -3.17,1.97 -3.17,1.97 0.13,2.76 3.3,0.8 9.89,2.38 13.39,3.28 3.5,0.9 3.9,1.12 3.65,-0.2 -0.26,-1.32 -1.16,-4.17 -1.64,-6.48 -0.47,-2.3 -0.51,-4.06 -0.38,-5.51 0.12,-1.45 0.41,-2.59 -2.61,-1.19z"/>
     <path class="fil2 str0" d="M1891.87 316.34c-1.26,1.16 -2.26,2.11 -3.95,0.25 -1.7,-1.85 -4.1,-6.52 -5.3,-10.43 -1.2,-3.91 -1.2,-7.07 -0.82,-8.66 0.38,-1.58 1.15,-1.58 2.03,-1.05 0.89,0.53 1.91,1.58 2.79,2.77 0.89,1.18 1.65,2.5 2.67,3.55 1.01,1.06 2.28,1.85 3.9,0.99 1.62,-0.86 3.58,-3.37 5.49,-5.22 1.9,-1.84 3.73,-3.02 4.78,-3.35 1.04,-0.32 1.3,0.21 1.17,1.66 -0.12,1.44 -0.63,3.82 -2.1,6.57 -1.47,2.76 -3.9,5.9 -5.88,8.15 -1.98,2.26 -3.52,3.62 -4.78,4.77z"/>
     <ellipse class="fil4 str0" cx="1898.55" cy="331.89" rx="4.18" ry="4.35"/>
     <path class="fil2 str0" d="M1887.11 344.38c1.04,2.06 2.72,6.59 3.9,9.41 1.19,2.82 1.9,3.92 1.82,5.71 -0.07,1.79 -0.92,4.27 -1.92,6 -1,1.73 -2.14,2.7 -3,3.64 -0.86,0.94 -1.44,1.85 -2.12,1.88 -0.68,0.02 -1.47,-0.83 -2.04,-2.3 -0.58,-1.47 -0.94,-3.56 -1.14,-5.73 -0.19,-2.17 -0.23,-4.42 -0.11,-6.34 0.11,-1.91 0.39,-3.49 0.66,-5.07 0.27,-1.57 0.54,-3.15 0.89,-4.56 0.35,-1.41 0.77,-2.65 1.19,-3.48 0.42,-0.82 0.82,-1.23 1.87,0.84z"/>
     <path class="fil3 str1" d="M1918.26 356.95c0.48,6.81 0.95,13.61 2.04,19.78 1.09,6.17 2.8,11.72 5.03,16.34 2.24,4.62 5.01,8.31 8.02,11.29 3.01,2.98 6.25,5.25 9.2,6.54 2.95,1.29 5.61,1.59 8.27,1.9 2.66,0.31 5.32,0.62 7.6,0.47 2.27,-0.15 4.16,-0.76 5.68,-1.65 1.52,-0.89 2.68,-2.08 3.49,-3.38 0.81,-1.31 1.28,-2.73 0.76,-4.19 -0.51,-1.46 -2.02,-2.95 -3.34,-4.3 -1.32,-1.34 -2.46,-2.54 -2.23,-2.06 0.23,0.47 1.82,2.63 3.98,4.2 0.7,0.5 1.45,0.94 2.21,1.31m0.24 -26.71c-0.44,-0.21 -0.87,-0.4 -1.3,-0.57 -2.25,-0.87 -4.29,-1.12 -6.33,-1.37"/>
    </g>
    <ellipse class="fil4 str0" cx="1898.55" cy="331.89" rx="6.74" ry="7.5"/>
   </g>
  </g>
  <g id="_2252101147600">
   <path class="fil5" d="M2348.97 342.37c-2.34,0.92 -5.27,2.92 -6.73,6.03 -1.46,3.11 -1.46,7.34 -1.09,10.37 0.37,3.04 1.12,4.89 2.3,7.27 1.18,2.38 2.8,5.29 5.45,8.21 2.66,2.91 6.36,5.84 10.34,7.93 3.98,2.1 8.24,3.36 11.95,3.89 3.71,0.53 6.87,0.33 9.55,-0.08 2.68,-0.41 4.87,-1.03 5.99,-1.08 1.12,-0.06 1.17,0.44 2.07,2.2 0.9,1.77 2.64,4.8 4.17,8.06 1.54,3.26 2.86,6.75 5.26,11.31 2.41,4.55 5.91,10.15 8.76,13.71 2.85,3.56 5.06,5.07 7.91,6.67 2.85,1.59 6.34,3.27 10.7,4.48 4.36,1.21 9.6,1.94 15.43,2.62 5.84,0.68 12.27,1.31 16.17,1.65 3.89,0.33 5.25,0.37 5.93,0.39 0.68,0.02 0.68,0.02 0.89,-13.32 0.21,-13.35 0.64,-40.04 0.09,-53.7 -0.54,-13.66 -2.06,-14.29 -5.17,-15.34 -3.11,-1.05 -7.82,-2.5 -13.75,-3.98 -5.93,-1.48 -13.08,-2.98 -18.32,-3.71 -5.24,-0.74 -8.57,-0.73 -13.47,-0.68 -4.89,0.05 -11.36,0.13 -17.34,-0.1 -5.98,-0.23 -11.48,-0.78 -15.93,-1.34 -4.45,-0.55 -7.85,-1.12 -11.11,-1.47 -3.27,-0.35 -6.39,-0.47 -8.74,-0.53 -2.35,-0.06 -3.91,-0.06 -5.57,-0.14 -1.65,-0.08 -3.41,-0.24 -5.74,0.68z"/>
   <g>
    <path class="fil2 str0" d="M2354.11 389.32c1.02,5.18 3.16,13.54 5,18.61 1.84,5.07 3.37,6.85 4.69,7.91 1.33,1.05 2.44,1.37 3.52,0.78 1.08,-0.59 2.12,-2.09 2.95,-4.51 0.83,-2.41 1.44,-5.74 1.9,-8.32 0.45,-2.59 0.75,-4.44 0.87,-6.28 0.12,-1.83 0.05,-3.67 -0.75,-5.29 -0.79,-1.62 -2.31,-3.03 -4.22,-4.34 -1.91,-1.31 -4.22,-2.5 -6.36,-3.55 -2.15,-1.05 -4.12,-1.95 -5.5,-2.62 -1.38,-0.67 -2.16,-1.12 -2.6,-0.34 -0.43,0.78 -0.53,2.77 0.5,7.95z"/>
    <g>
     <path class="fil3 str2" d="M2465.09 355.95c-10.28,-4.3 -20.55,-8.6 -31.54,-10.1 -11,-1.49 -22.72,-0.17 -33.41,-0.25 -10.7,-0.08 -20.36,-1.55 -28.16,-2.91 -7.79,-1.36 -13.71,-2.61 -18.28,-2.26 -4.57,0.35 -7.8,2.3 -10.09,5.14 -2.28,2.83 -3.61,6.55 -3.83,10.6 -0.22,4.04 0.68,8.41 2.47,12.2 1.79,3.79 4.47,6.99 7.87,9.62 3.4,2.63 7.51,4.68 11.42,6.19 3.91,1.5 7.62,2.47 11.11,2.71 3.49,0.24 6.78,-0.25 9.51,-0.9 2.73,-0.65 4.9,-1.47 6.44,0.5 1.54,1.96 2.45,6.7 5.43,13.01 2.98,6.31 8.04,14.2 11.9,19.2 3.85,4.99 6.49,7.1 10.43,9.34 3.94,2.24 9.16,4.62 17.28,5.97 8.13,1.35 19.15,1.68 30.17,2.01"/>
     <path class="fil2 str0" d="M2335.02 366.3c-4.02,0.46 -10.96,1.45 -14.61,1.95 -3.65,0.5 -4.02,0.52 -0.88,1.14 3.14,0.61 9.79,1.84 13.68,2.61 3.88,0.78 4.99,1.1 5.75,1.81 0.76,0.71 1.17,1.79 1.61,3.98 0.45,2.18 0.94,5.47 0.73,9.7 -0.22,4.22 -1.13,9.39 -1.05,11.41 0.07,2.01 1.13,0.88 2.64,-2.85 1.52,-3.73 3.49,-10.03 4.77,-13.48 1.28,-3.44 1.87,-4.01 0.91,-5.79 -0.96,-1.77 -3.48,-4.76 -4.96,-6.76 -1.47,-2 -1.91,-3.03 -2.69,-3.57 -0.77,-0.55 -1.88,-0.61 -5.9,-0.15z"/>
     <path class="fil6 str0" d="M2354.7 357.64c-0.13,1.65 0.31,3.47 1.16,5.03 0.85,1.56 2.12,2.86 3.63,3.56 1.5,0.7 3.24,0.8 4.63,-0.44 1.39,-1.24 2.44,-3.82 2.16,-6.22 -0.28,-2.39 -1.89,-4.6 -3.8,-5.67 -1.9,-1.07 -4.1,-0.99 -5.54,-0.2 -1.44,0.79 -2.12,2.28 -2.24,3.94z"/>
     <path class="fil2 str0" d="M2348.83 338.24c-0.57,-1.1 -1.37,-2.91 -1.81,-4.72 -0.43,-1.82 -0.5,-3.66 -0.04,-6.24 0.46,-2.59 1.43,-5.93 2.78,-9.28 1.34,-3.35 3.06,-6.72 4.46,-8.6 1.39,-1.89 2.48,-2.3 4.23,0.39 1.75,2.69 4.16,8.47 6.32,12.25 2.16,3.77 4.06,5.54 5.9,5.84 1.85,0.3 3.64,-0.87 5.23,-2.58 1.59,-1.71 2.97,-3.96 4.2,-5.47 1.23,-1.52 2.3,-2.29 3.05,-1.77 0.76,0.52 1.19,2.34 1.63,4.35 0.44,2 0.89,4.18 0.59,6.03 -0.3,1.85 -1.34,3.35 -2.4,4.49 -1.06,1.14 -2.14,1.92 -3.21,2.69 -1.07,0.77 -2.14,1.54 -3.96,1.98 -1.82,0.43 -4.39,0.53 -7.29,0.83 -2.91,0.31 -6.16,0.84 -9.28,1.16 -3.13,0.31 -6.12,0.42 -7.8,0.28 -1.67,-0.14 -2.02,-0.53 -2.6,-1.63z"/>
    </g>
    <path class="fil3 str2" d="M2419.89 387.6c1.27,7.29 2.54,14.58 6.08,20.13 3.53,5.53 9.34,9.32 16.09,11.25 6.74,1.92 14.41,1.97 22.09,2.02"/>
   </g>
  </g>
  <path class="fil5" d="M1964.96 685.67c-0.19,-0.12 -0.37,-0.25 -0.55,-0.38 -2.17,-1.56 -3.76,-3.72 -3.99,-4.2 -0.22,-0.48 0.92,0.72 2.24,2.07 0.78,0.8 1.63,1.65 2.3,2.51zm5.26 -23.9l-0.06 -10.86c0.02,-0.66 0.16,-1.25 0.39,-1.76 0,-2.82 0.03,-5.61 0.1,-8.18 -3.91,-2.04 -7.68,-3.99 -11.2,-5.7 -15.2,-7.37 -25.72,-10.32 -32.73,-14.55 -7,-4.24 -10.48,-9.77 -13.69,-13.99 -3.2,-4.22 -6.12,-7.11 -9.29,-8.7 -3.17,-1.58 -6.58,-1.84 -9.87,-0.79 -1.12,0.36 -2.23,0.88 -3.3,1.54 -0.37,0.34 -0.72,0.66 -1.06,0.97 -0.62,0.57 -1.18,1.09 -1.8,1.25 -0.98,0.93 -1.9,2.01 -2.73,3.23 -2.35,3.43 -4.02,7.97 -4.24,12.31 0.03,1.04 0.15,2.22 0.44,3.6 0.4,1.95 1.11,4.29 1.47,5.77 0.13,0.25 0.26,0.5 0.39,0.75 0.37,-0.6 0.8,-0.69 1.71,1.12 0.4,0.79 0.9,1.95 1.42,3.23 2.36,2.67 5.2,5.37 7.54,10.51 2.88,6.34 4.99,16.39 10.41,29.96 5.42,13.57 14.15,30.66 31.45,40.26 9.4,5.22 21.32,8.22 33.14,8.95 0.62,-0.22 1.24,-0.44 1.86,-0.66l-0.19 -32.22 -0.16 -26.04zm-67.29 -46.48c0,4.15 -3.02,7.5 -6.74,7.5 -3.72,0 -6.74,-3.35 -6.74,-7.5 0,-4.14 3.02,-7.5 6.74,-7.5 3.72,0 6.74,3.36 6.74,7.5z"/>
  <g id="_2252101144528">
   <g>
    <path class="fil3 str1" d="M1970.75 640.97c-3.91,-2.04 -7.68,-3.99 -11.2,-5.7 -15.19,-7.37 -25.72,-10.32 -32.72,-14.55 -7.01,-4.24 -10.49,-9.77 -13.69,-13.99 -3.21,-4.22 -6.13,-7.11 -9.3,-8.7 -3.16,-1.58 -6.57,-1.84 -9.86,-0.79 -3.29,1.06 -6.46,3.43 -8.9,6.99 -2.43,3.55 -4.14,8.3 -4.26,12.77 -0.12,4.48 1.34,8.7 3.9,12.13 2.56,3.42 6.21,6.06 9.09,12.39 2.88,6.34 4.99,16.39 10.41,29.96 5.42,13.57 14.15,30.66 31.46,40.26 9.89,5.49 22.58,8.53 35,9.05l-0.42 -69.88c0.02,-0.66 0.16,-1.25 0.39,-1.76 0.01,-2.82 0.03,-5.61 0.1,-8.18z"/>
    <path class="fil2 str0" d="M1878.29 613.44c-3.03,1.4 -9.37,5.36 -12.54,7.33 -3.17,1.98 -3.17,1.98 0.13,2.77 3.3,0.79 9.89,2.37 13.39,3.27 3.5,0.9 3.9,1.12 3.64,-0.2 -0.25,-1.31 -1.16,-4.17 -1.63,-6.47 -0.47,-2.31 -0.51,-4.07 -0.39,-5.52 0.13,-1.44 0.42,-2.59 -2.6,-1.18z"/>
    <path class="fil2 str0" d="M1889.62 599.75c-1.27,1.15 -2.26,2.1 -3.96,0.25 -1.69,-1.86 -4.09,-6.52 -5.29,-10.44 -1.2,-3.91 -1.2,-7.07 -0.82,-8.65 0.38,-1.58 1.14,-1.58 2.03,-1.06 0.89,0.53 1.9,1.58 2.79,2.77 0.89,1.19 1.65,2.5 2.66,3.56 1.02,1.05 2.29,1.84 3.91,0.98 1.61,-0.86 3.58,-3.37 5.48,-5.22 1.91,-1.84 3.74,-3.02 4.79,-3.34 1.04,-0.33 1.3,0.2 1.17,1.65 -0.13,1.45 -0.63,3.82 -2.1,6.58 -1.47,2.75 -3.9,5.89 -5.88,8.15 -1.99,2.25 -3.52,3.61 -4.78,4.77z"/>
    <ellipse class="fil4 str0" cx="1896.29" cy="615.29" rx="4.18" ry="4.35"/>
    <path class="fil2 str0" d="M1884.85 627.78c1.05,2.06 2.72,6.6 3.91,9.41 1.19,2.82 1.89,3.92 1.82,5.71 -0.08,1.79 -0.93,4.27 -1.92,6 -1,1.73 -2.14,2.71 -3,3.65 -0.86,0.94 -1.44,1.84 -2.12,1.87 -0.69,0.03 -1.47,-0.82 -2.04,-2.29 -0.58,-1.47 -0.94,-3.56 -1.14,-5.74 -0.2,-2.17 -0.23,-4.42 -0.11,-6.33 0.11,-1.92 0.38,-3.49 0.65,-5.07 0.28,-1.58 0.55,-3.16 0.9,-4.57 0.34,-1.41 0.77,-2.65 1.19,-3.47 0.41,-0.83 0.82,-1.23 1.86,0.83z"/>
    <path class="fil3 str1" d="M1916.01 640.36c0.48,6.8 0.95,13.6 2.04,19.77 1.09,6.18 2.79,11.72 5.03,16.34 2.24,4.62 5.01,8.31 8.02,11.3 3.01,2.98 6.25,5.24 9.2,6.53 2.95,1.29 5.61,1.6 8.27,1.9 2.66,0.31 5.32,0.62 7.59,0.47 2.28,-0.15 4.16,-0.75 5.69,-1.65 1.52,-0.89 2.67,-2.07 3.49,-3.38 0.81,-1.3 1.28,-2.73 0.76,-4.19 -0.51,-1.46 -2.02,-2.95 -3.34,-4.29 -1.32,-1.35 -2.46,-2.55 -2.23,-2.07 0.22,0.48 1.81,2.64 3.98,4.2 1.85,1.34 4.12,2.25 5.97,2.52m-0.16 -26.04c-1.54,-0.97 -3.15,-1.85 -4.67,-2.45 -2.24,-0.87 -4.28,-1.12 -6.33,-1.37"/>
   </g>
   <ellipse class="fil4 str0" cx="1896.29" cy="615.29" rx="6.74" ry="7.5"/>
  </g>
  <g id="_2252101142928">
   <path class="fil5" d="M-299.53 684.95c0.7,-0.86 1.58,-1.71 2.4,-2.51 1.37,-1.35 2.55,-2.55 2.32,-2.07 -0.24,0.48 -1.89,2.64 -4.14,4.21 -0.19,0.13 -0.38,0.25 -0.58,0.37zm63.21 -14.19c5.63,-13.57 7.82,-23.61 10.81,-29.95 2.43,-5.14 5.39,-7.85 7.84,-10.52 0.54,-1.28 1.05,-2.44 1.47,-3.23 0.95,-1.8 1.39,-1.72 1.78,-1.12 0.14,-0.25 0.27,-0.5 0.4,-0.75 0.38,-1.48 1.12,-3.82 1.53,-5.77 0.3,-1.38 0.43,-2.56 0.46,-3.6 -0.23,-4.34 -1.97,-8.88 -4.41,-12.31 -0.87,-1.22 -1.82,-2.3 -2.84,-3.23 -0.64,-0.15 -1.22,-0.68 -1.87,-1.25 -0.35,-0.31 -0.71,-0.62 -1.1,-0.97 -1.11,-0.66 -2.26,-1.17 -3.43,-1.53 -3.42,-1.06 -6.96,-0.79 -10.25,0.79 -3.29,1.58 -6.33,4.48 -9.65,8.69 -3.33,4.22 -6.95,9.75 -14.22,13.99 -7.28,4.24 -18.22,7.18 -34,14.56 -3.11,1.45 -6.42,3.08 -9.84,4.8l0.07 20.87 0.09 26.5 0.1 32.91c0.31,0.09 0.62,0.17 0.92,0.27 11.96,-0.83 23.96,-3.81 33.46,-8.88 17.98,-9.61 27.05,-26.7 32.68,-40.27zm8.23 -48.68c-3.86,0 -6.99,-3.36 -6.99,-7.5 0,-4.15 3.13,-7.5 6.99,-7.5 3.87,0 7,3.35 7,7.5 0,4.14 -3.13,7.5 -7,7.5z"/>
   <g>
    <g>
     <path class="fil3 str1" d="M-303.64 639.36c3.42,-1.72 6.73,-3.35 9.84,-4.8 15.78,-7.38 26.72,-10.32 34,-14.56 7.27,-4.24 10.89,-9.77 14.22,-13.99 3.32,-4.21 6.36,-7.11 9.65,-8.69 3.29,-1.58 6.83,-1.85 10.25,-0.79 3.42,1.05 6.71,3.42 9.24,6.98 2.53,3.56 4.3,8.3 4.43,12.78 0.13,4.48 -1.39,8.69 -4.05,12.12 -2.66,3.42 -6.46,6.06 -9.45,12.4 -2.99,6.34 -5.18,16.38 -10.81,29.95 -5.63,13.57 -14.7,30.66 -32.68,40.27 -9.75,5.2 -22.11,8.21 -34.38,8.94l-0.26 -80.61z"/>
     <path class="fil2 str0" d="M-209.38 612.72c3.14,1.4 9.73,5.36 13.02,7.33 3.3,1.98 3.3,1.98 -0.13,2.77 -3.43,0.79 -10.28,2.37 -13.91,3.27 -3.63,0.9 -4.05,1.12 -3.79,-0.19 0.27,-1.32 1.21,-4.18 1.7,-6.48 0.49,-2.31 0.53,-4.06 0.4,-5.51 -0.13,-1.45 -0.43,-2.59 2.71,-1.19z"/>
     <path class="fil2 str0" d="M-221.15 599.03c1.31,1.16 2.34,2.11 4.11,0.25 1.76,-1.86 4.25,-6.52 5.49,-10.44 1.25,-3.91 1.25,-7.07 0.86,-8.65 -0.4,-1.58 -1.19,-1.58 -2.11,-1.05 -0.92,0.52 -1.98,1.58 -2.9,2.76 -0.92,1.19 -1.71,2.51 -2.77,3.56 -1.05,1.05 -2.37,1.84 -4.05,0.98 -1.68,-0.86 -3.73,-3.37 -5.7,-5.21 -1.98,-1.85 -3.88,-3.03 -4.97,-3.35 -1.09,-0.33 -1.35,0.2 -1.22,1.65 0.13,1.45 0.66,3.82 2.19,6.58 1.52,2.76 4.05,5.9 6.1,8.15 2.06,2.25 3.66,3.61 4.97,4.77z"/>
     <circle class="fil4 str0" cx="-228.08" cy="614.58" r="4.35"/>
     <path class="fil2 str0" d="M-216.2 627.06c-1.09,2.06 -2.83,6.6 -4.06,9.42 -1.24,2.81 -1.97,3.91 -1.89,5.7 0.08,1.79 0.96,4.27 2,6 1.03,1.73 2.22,2.71 3.11,3.65 0.9,0.94 1.5,1.84 2.21,1.87 0.71,0.03 1.52,-0.82 2.12,-2.29 0.59,-1.47 0.97,-3.56 1.17,-5.73 0.21,-2.17 0.25,-4.43 0.13,-6.34 -0.12,-1.91 -0.41,-3.49 -0.69,-5.07 -0.28,-1.58 -0.56,-3.16 -0.92,-4.56 -0.37,-1.41 -0.81,-2.66 -1.24,-3.48 -0.43,-0.82 -0.86,-1.23 -1.94,0.83z"/>
     <path class="fil3 str1" d="M-248.57 639.64c-0.49,6.8 -0.99,13.6 -2.12,19.78 -1.13,6.17 -2.9,11.71 -5.22,16.33 -2.33,4.62 -5.21,8.32 -8.33,11.3 -3.13,2.98 -6.49,5.25 -9.56,6.53 -3.07,1.29 -5.83,1.6 -8.59,1.91 -2.77,0.3 -5.53,0.61 -7.89,0.46 -2.36,-0.15 -4.32,-0.75 -5.9,-1.64 -1.58,-0.9 -2.78,-2.08 -3.63,-3.39 -0.84,-1.3 -1.33,-2.73 -0.79,-4.19 0.53,-1.45 2.09,-2.95 3.47,-4.29 1.37,-1.35 2.55,-2.55 2.32,-2.07 -0.24,0.48 -1.89,2.64 -4.14,4.21 -1.4,0.96 -3.02,1.71 -4.53,2.15m-0.09 -26.5c1.15,-0.64 2.32,-1.2 3.43,-1.62 2.33,-0.88 4.45,-1.13 6.58,-1.38"/>
    </g>
    <ellipse class="fil4 str0" cx="-228.09" cy="614.58" rx="7" ry="7.5"/>
   </g>
  </g>
  <g id="_2252101138256">
   <path class="fil5" d="M35.33 403.16c0.69,-0.87 1.57,-1.72 2.39,-2.52 1.37,-1.34 2.55,-2.54 2.32,-2.06 -0.24,0.47 -1.89,2.63 -4.14,4.2 -0.19,0.13 -0.38,0.26 -0.57,0.38zm63.2 -14.2c5.63,-13.57 7.82,-23.61 10.81,-29.95 2.43,-5.14 5.39,-7.84 7.84,-10.51 0.54,-1.29 1.05,-2.44 1.47,-3.23 0.95,-1.81 1.39,-1.72 1.78,-1.12 0.14,-0.25 0.27,-0.5 0.4,-0.76 0.38,-1.47 1.12,-3.81 1.53,-5.77 0.3,-1.38 0.43,-2.56 0.46,-3.59 -0.23,-4.34 -1.96,-8.88 -4.41,-12.32 -0.87,-1.21 -1.82,-2.29 -2.84,-3.22 -0.63,-0.16 -1.22,-0.68 -1.87,-1.26 -0.35,-0.3 -0.71,-0.62 -1.1,-0.96 -1.11,-0.67 -2.26,-1.18 -3.43,-1.54 -3.41,-1.05 -6.96,-0.79 -10.25,0.79 -3.29,1.58 -6.33,4.48 -9.65,8.7 -3.33,4.21 -6.95,9.75 -14.22,13.98 -7.28,4.24 -18.21,7.18 -34,14.56 -3.11,1.46 -6.42,3.09 -9.84,4.8l0.07 20.87 0.09 26.5 0.1 32.91c0.31,0.09 0.62,0.18 0.92,0.28 11.96,-0.83 23.96,-3.81 33.46,-8.89 17.98,-9.6 27.05,-26.7 32.68,-40.27zm8.24 -48.68c-3.87,0 -7,-3.36 -7,-7.5 0,-4.14 3.13,-7.5 7,-7.5 3.86,0 7,3.36 7,7.5 0,4.14 -3.14,7.5 -7,7.5z"/>
   <g>
    <g>
     <path class="fil3 str1" d="M31.21 357.56c3.42,-1.71 6.73,-3.34 9.84,-4.8 15.79,-7.38 26.72,-10.32 34,-14.56 7.27,-4.23 10.89,-9.77 14.22,-13.98 3.32,-4.22 6.36,-7.12 9.65,-8.7 3.29,-1.58 6.84,-1.84 10.25,-0.79 3.42,1.06 6.71,3.43 9.24,6.98 2.53,3.56 4.3,8.3 4.43,12.78 0.13,4.48 -1.39,8.7 -4.05,12.12 -2.66,3.43 -6.45,6.06 -9.45,12.4 -2.99,6.34 -5.18,16.38 -10.81,29.95 -5.63,13.57 -14.7,30.67 -32.68,40.27 -9.75,5.21 -22.11,8.21 -34.37,8.95l-0.27 -80.62z"/>
     <path class="fil2 str0" d="M125.47 330.93c3.14,1.4 9.73,5.35 13.02,7.33 3.3,1.97 3.3,1.97 -0.13,2.76 -3.42,0.8 -10.27,2.38 -13.91,3.28 -3.63,0.9 -4.05,1.12 -3.79,-0.2 0.27,-1.32 1.21,-4.17 1.7,-6.48 0.49,-2.3 0.53,-4.06 0.4,-5.51 -0.13,-1.45 -0.43,-2.59 2.71,-1.18z"/>
     <path class="fil2 str0" d="M113.7 317.23c1.31,1.16 2.35,2.11 4.11,0.25 1.76,-1.85 4.25,-6.52 5.5,-10.43 1.24,-3.91 1.24,-7.07 0.85,-8.65 -0.4,-1.59 -1.19,-1.59 -2.11,-1.06 -0.92,0.53 -1.98,1.58 -2.9,2.77 -0.92,1.18 -1.71,2.5 -2.77,3.56 -1.05,1.05 -2.37,1.84 -4.05,0.98 -1.68,-0.86 -3.72,-3.37 -5.7,-5.22 -1.98,-1.84 -3.88,-3.02 -4.97,-3.35 -1.08,-0.32 -1.35,0.21 -1.22,1.66 0.13,1.45 0.66,3.82 2.19,6.57 1.52,2.76 4.05,5.9 6.11,8.15 2.05,2.26 3.65,3.62 4.96,4.77z"/>
     <circle class="fil4 str0" cx="106.77" cy="332.78" r="4.35"/>
     <path class="fil2 str0" d="M118.65 345.27c-1.08,2.06 -2.83,6.59 -4.06,9.41 -1.24,2.82 -1.96,3.92 -1.89,5.71 0.08,1.79 0.96,4.27 2,6 1.03,1.73 2.22,2.7 3.11,3.64 0.9,0.95 1.5,1.85 2.21,1.88 0.71,0.02 1.52,-0.83 2.12,-2.3 0.59,-1.47 0.97,-3.56 1.18,-5.73 0.2,-2.17 0.24,-4.42 0.12,-6.34 -0.12,-1.91 -0.41,-3.49 -0.69,-5.06 -0.28,-1.58 -0.56,-3.16 -0.92,-4.57 -0.36,-1.41 -0.81,-2.65 -1.24,-3.48 -0.43,-0.82 -0.86,-1.23 -1.94,0.84z"/>
     <path class="fil3 str1" d="M86.28 357.84c-0.49,6.81 -0.99,13.61 -2.12,19.78 -1.13,6.17 -2.9,11.72 -5.22,16.34 -2.33,4.62 -5.21,8.31 -8.33,11.29 -3.13,2.98 -6.49,5.25 -9.56,6.54 -3.06,1.29 -5.83,1.59 -8.59,1.9 -2.77,0.31 -5.53,0.62 -7.89,0.47 -2.36,-0.15 -4.32,-0.76 -5.9,-1.65 -1.58,-0.89 -2.78,-2.08 -3.63,-3.38 -0.84,-1.31 -1.33,-2.73 -0.79,-4.19 0.53,-1.46 2.09,-2.95 3.47,-4.3 1.37,-1.34 2.55,-2.54 2.32,-2.06 -0.24,0.47 -1.89,2.63 -4.14,4.2 -1.39,0.97 -3.01,1.71 -4.53,2.15m-0.09 -26.5c1.15,-0.63 2.32,-1.2 3.43,-1.62 2.33,-0.87 4.45,-1.12 6.58,-1.37"/>
    </g>
    <ellipse class="fil4 str0" cx="106.77" cy="332.78" rx="7" ry="7.5"/>
   </g>
  </g>
  <g id="_2252101132752">
   <path class="fil5" d="M157.85 626.44c2.6,0.92 5.85,2.92 7.47,6.03 1.63,3.11 1.63,7.33 1.22,10.37 -0.42,3.04 -1.24,4.88 -2.56,7.27 -1.31,2.38 -3.11,5.29 -6.06,8.2 -2.95,2.92 -7.06,5.85 -11.48,7.94 -4.42,2.1 -9.15,3.36 -13.27,3.89 -4.12,0.53 -7.64,0.33 -10.61,-0.08 -2.97,-0.41 -5.4,-1.03 -6.65,-1.09 -1.24,-0.05 -1.3,0.45 -2.3,2.21 -1,1.77 -2.93,4.8 -4.64,8.06 -1.7,3.26 -3.17,6.75 -5.84,11.3 -2.67,4.55 -6.56,10.16 -9.73,13.72 -3.16,3.56 -5.62,5.07 -8.78,6.66 -3.17,1.6 -7.04,3.28 -11.88,4.49 -4.85,1.21 -10.66,1.94 -17.14,2.62 -6.49,0.68 -13.63,1.31 -17.96,1.64 -4.33,0.34 -5.84,0.38 -6.59,0.4 -0.75,0.02 -0.75,0.02 -0.99,-13.32 -0.24,-13.35 -0.71,-40.04 -0.1,-53.7 0.6,-13.66 2.29,-14.3 5.75,-15.34 3.45,-1.05 8.68,-2.51 15.27,-3.98 6.59,-1.48 14.53,-2.98 20.35,-3.72 5.82,-0.73 9.52,-0.72 14.95,-0.67 5.44,0.05 12.62,0.13 19.26,-0.1 6.65,-0.23 12.76,-0.78 17.7,-1.34 4.94,-0.56 8.72,-1.13 12.34,-1.47 3.63,-0.35 7.1,-0.47 9.71,-0.54 2.6,-0.06 4.34,-0.05 6.18,-0.13 1.84,-0.08 3.79,-0.24 6.38,0.68z"/>
   <path class="fil5" d="M30.37 705.95c0.02,-13.24 0.02,-39.25 -0.23,-52.36 -0.26,-13.12 -0.76,-13.34 4.46,-15.09 5.22,-1.75 16.17,-5.01 26.45,-6.77 10.27,-1.75 19.88,-2 29.04,-2.23 9.17,-0.24 17.89,-0.46 26.99,-1.24 9.09,-0.78 18.55,-2.11 25.82,-2.45 7.28,-0.34 12.37,0.32 15.74,1.6 3.38,1.27 5.03,3.17 6.24,4.92 1.22,1.75 1.99,3.36 2.45,5.07 0.45,1.71 0.59,3.52 -0.02,5.66 -0.61,2.13 -1.97,4.59 -3.4,7.33 -1.42,2.74 -2.91,5.75 -5.04,8.27 -2.13,2.51 -4.88,4.52 -8.14,6.11 -3.26,1.59 -7.02,2.76 -11.35,3.69 -4.33,0.93 -9.24,1.62 -12.69,1.75 -3.46,0.13 -5.46,-0.28 -7.25,-0.46 -1.8,-0.19 -3.39,-0.13 -4.48,0.35 -1.09,0.49 -1.68,1.39 -3.56,4.87 -1.89,3.48 -5.08,9.53 -8.97,15.47 -3.89,5.94 -8.47,11.78 -12.65,15.75 -4.18,3.97 -7.94,6.07 -12.35,7.76 -4.4,1.69 -9.44,2.97 -14.61,3.83 -5.16,0.86 -10.45,1.31 -14.67,1.55 -4.22,0.25 -7.36,0.3 -10.11,0.39 -2.75,0.09 -5.1,0.23 -6.33,0.3 -1.22,0.07 -1.32,0.07 -1.35,-0.16 -0.03,-0.22 0,-0.68 0.01,-13.91z"/>
   <g>
    <path class="fil2 str0" d="M152.14 673.39c-1.13,5.18 -3.51,13.54 -5.55,18.61 -2.04,5.07 -3.75,6.85 -5.22,7.9 -1.47,1.06 -2.7,1.38 -3.9,0.79 -1.2,-0.59 -2.36,-2.09 -3.28,-4.51 -0.92,-2.42 -1.6,-5.74 -2.11,-8.32 -0.5,-2.59 -0.84,-4.44 -0.97,-6.28 -0.12,-1.84 -0.05,-3.67 0.83,-5.29 0.88,-1.62 2.57,-3.04 4.7,-4.34 2.12,-1.31 4.68,-2.51 7.06,-3.55 2.38,-1.05 4.58,-1.95 6.11,-2.62 1.53,-0.67 2.4,-1.12 2.88,-0.34 0.48,0.77 0.59,2.77 -0.55,7.95z"/>
    <g>
     <path class="fil3 str2" d="M28.88 640.02c11.41,-4.3 22.82,-8.6 35.03,-10.1 12.21,-1.49 25.23,-0.17 37.11,-0.25 11.88,-0.08 22.61,-1.55 31.27,-2.91 8.65,-1.37 15.23,-2.62 20.31,-2.27 5.07,0.35 8.66,2.31 11.2,5.15 2.53,2.83 4.01,6.55 4.26,10.59 0.24,4.05 -0.76,8.42 -2.74,12.21 -1.99,3.78 -4.98,6.99 -8.75,9.62 -3.78,2.62 -8.34,4.68 -12.68,6.18 -4.35,1.51 -8.46,2.48 -12.34,2.72 -3.88,0.24 -7.53,-0.25 -10.56,-0.9 -3.03,-0.65 -5.45,-1.47 -7.16,0.49 -1.71,1.97 -2.72,6.7 -6.03,13.02 -3.31,6.31 -8.93,14.2 -13.21,19.19 -4.28,5 -7.22,7.11 -11.59,9.35 -4.37,2.24 -10.18,4.61 -19.2,5.97 -9.02,1.35 -21.26,1.68 -33.5,2.01"/>
     <path class="fil2 str0" d="M173.35 650.37c4.46,0.46 12.17,1.45 16.22,1.95 4.06,0.5 4.47,0.51 0.98,1.13 -3.49,0.62 -10.88,1.85 -15.19,2.62 -4.31,0.78 -5.55,1.1 -6.39,1.81 -0.85,0.71 -1.3,1.79 -1.8,3.98 -0.49,2.18 -1.03,5.47 -0.8,9.7 0.24,4.22 1.25,9.39 1.17,11.41 -0.08,2.01 -1.26,0.87 -2.94,-2.85 -1.68,-3.73 -3.87,-10.04 -5.3,-13.48 -1.42,-3.44 -2.08,-4.01 -1.01,-5.79 1.07,-1.78 3.87,-4.76 5.51,-6.76 1.64,-2.01 2.12,-3.03 2.98,-3.57 0.86,-0.55 2.1,-0.61 6.57,-0.15z"/>
     <path class="fil6 str0" d="M151.49 641.71c0.13,1.65 -0.35,3.47 -1.29,5.03 -0.95,1.56 -2.36,2.86 -4.03,3.56 -1.67,0.7 -3.6,0.8 -5.15,-0.45 -1.55,-1.24 -2.71,-3.81 -2.4,-6.21 0.31,-2.4 2.1,-4.61 4.22,-5.67 2.12,-1.07 4.56,-0.99 6.16,-0.2 1.6,0.79 2.35,2.28 2.49,3.94z"/>
     <path class="fil2 str0" d="M158 622.31c0.64,-1.1 1.53,-2.91 2.01,-4.73 0.48,-1.82 0.56,-3.65 0.05,-6.23 -0.51,-2.59 -1.59,-5.93 -3.09,-9.28 -1.49,-3.35 -3.39,-6.72 -4.95,-8.6 -1.55,-1.89 -2.76,-2.3 -4.7,0.39 -1.94,2.69 -4.63,8.47 -7.02,12.25 -2.4,3.77 -4.51,5.54 -6.56,5.84 -2.04,0.29 -4.03,-0.87 -5.8,-2.58 -1.76,-1.71 -3.3,-3.96 -4.67,-5.48 -1.36,-1.51 -2.55,-2.28 -3.39,-1.76 -0.84,0.52 -1.32,2.34 -1.81,4.34 -0.49,2.01 -0.98,4.19 -0.65,6.04 0.33,1.84 1.49,3.35 2.67,4.49 1.18,1.14 2.37,1.91 3.56,2.69 1.19,0.77 2.38,1.54 4.4,1.98 2.02,0.43 4.87,0.52 8.1,0.83 3.23,0.31 6.84,0.84 10.31,1.15 3.47,0.32 6.8,0.43 8.66,0.29 1.85,-0.14 2.24,-0.53 2.88,-1.63z"/>
    </g>
    <path class="fil3 str2" d="M79.07 671.67c-1.4,7.29 -2.81,14.58 -6.74,20.12 -3.93,5.54 -10.38,9.33 -17.87,11.26 -7.49,1.92 -16.01,1.97 -24.54,2.02"/>
   </g>
  </g>
  <g id="_2251862559472">
   <path class="fil5" d="M2558.71 601.24c-5.1,2.96 -14.1,8.46 -20.57,13.54 -6.47,5.08 -10.41,9.73 -15.15,16.17 -4.74,6.45 -10.28,14.68 -13.4,22.35 -3.12,7.66 -3.82,14.76 -3.17,22.34 0.65,7.58 2.65,15.64 6.15,22.45 3.5,6.82 8.49,12.39 14.11,17.08 5.63,4.69 11.89,8.49 18.84,10.94 6.96,2.44 14.62,3.54 25.1,2.85 10.49,-0.69 23.81,-3.16 32.12,-4.54 8.3,-1.38 11.6,-1.67 13.75,-2.14 2.16,-0.48 3.17,-1.14 3.49,-11.6 0.32,-10.45 -0.06,-30.69 -0.24,-40.81 -0.19,-10.13 -0.19,-10.13 -4.96,-11.08 -4.77,-0.95 -14.32,-2.86 -20.27,-4.78 -5.96,-1.93 -8.32,-3.87 -9.55,-5.91 -1.22,-2.03 -1.3,-4.15 0.23,-7.15 1.53,-3 4.68,-6.89 6.96,-10.93 2.28,-4.04 3.7,-8.22 4.42,-11.3 0.72,-3.09 0.74,-5.06 0.13,-7.33 -0.61,-2.27 -1.86,-4.83 -3.92,-6.66 -2.07,-1.84 -4.95,-2.95 -8.33,-4.01 -3.37,-1.06 -7.22,-2.06 -10.34,-2.6 -3.12,-0.53 -5.5,-0.6 -7.29,-0.42 -1.8,0.17 -3,0.58 -8.11,3.54z"/>
   <g>
    <path class="fil3 str1" d="M2620.67 720.48c-28.66,6.42 -57.32,12.84 -78.82,4.89 -21.51,-7.96 -35.86,-30.29 -36.78,-50.21 -0.92,-19.92 11.58,-37.42 19.68,-47.17 8.09,-9.75 11.78,-11.75 11.17,-15.08 -0.62,-3.33 -5.53,-8 -5.33,-9.33 0.2,-1.34 5.53,0.67 8.41,1 2.86,0.33 3.27,-1 5.94,-5.84 2.66,-4.83 7.58,-13.16 9.84,-15.49 2.25,-2.34 1.84,1.33 2.46,4.66 0.61,3.33 2.25,6.33 3.48,8.17 1.23,1.83 2.05,2.5 4.31,2.83 2.25,0.33 5.94,0.33 9.83,0.67 3.9,0.33 8,1 11.07,2.16 3.08,1.17 5.13,2.84 6.97,5.01 1.85,2.16 3.49,4.83 4.1,7.83 0.62,3 0.21,6.33 -1.23,10 -1.43,3.67 -3.89,7.66 -6.15,10.83 -2.25,3.17 -4.3,5.5 -5.33,7.84 -1.02,2.33 -1.02,4.66 0.41,6.83 1.44,2.16 4.31,4.17 7.38,5.5 3.08,1.33 6.36,2 10.97,2.58 4.61,0.58 10.55,1.08 16.5,1.58"/>
    <g>
     <path class="fil2 str0" d="M2556.35 582.36c0.79,0.61 1.13,2.83 1.47,5.22 0.35,2.39 0.69,4.94 1.61,6.94 0.92,2.01 2.43,3.45 3.18,4.17 0.75,0.73 0.75,0.73 -4,3.45 -4.75,2.72 -14.25,8.16 -19.19,10.97 -4.95,2.8 -5.36,2.97 -5.55,2.32 -0.19,-0.66 -0.17,-2.13 -0.73,-3.72 -0.56,-1.59 -1.68,-3.3 -2.48,-4.59 -0.8,-1.29 -1.27,-2.16 -0.82,-2.59 0.45,-0.42 1.82,-0.39 3.22,-0.23 1.4,0.17 2.83,0.48 4.04,0.49 1.2,0.01 2.18,-0.27 3.17,-1.24 0.99,-0.97 2,-2.64 3.26,-4.78 1.27,-2.15 2.8,-4.78 3.86,-6.87 1.06,-2.08 1.65,-3.62 2.52,-4.88 0.88,-1.27 2.04,-2.27 3.23,-3.27 1.2,-1 2.43,-2 3.21,-1.39z"/>
     <path class="fil2 str0" d="M2533.21 616.12c-0.41,-0.84 -4.69,-0.36 -9.09,0.55 -4.39,0.91 -8.9,2.24 -12.59,3.57 -3.69,1.34 -6.56,2.67 -9.02,3.84 -2.46,1.17 -4.51,2.16 -4.92,3.66 -0.41,1.5 0.82,3.51 2.46,4.67 1.64,1.17 3.69,1.5 6.8,0.78 3.11,-0.72 7.27,-2.49 10.76,-4.65 3.48,-2.17 6.28,-4.73 9.42,-7.09 3.13,-2.35 6.59,-4.5 6.18,-5.33z"/>
     <path class="fil2 str0" d="M2590.32 603.15c1.85,0.67 4.24,1.17 6.66,1.08 2.43,-0.08 4.89,-0.75 6.73,-2.08 1.85,-1.33 3.08,-3.33 3.69,-5.33 0.62,-2 0.62,-4 0,-5.34 -0.61,-1.33 -1.84,-2 -3.48,-1.66 -1.64,0.33 -3.69,1.66 -5.33,2.67 -1.64,0.99 -2.87,1.66 -4.31,1.99 -1.43,0.34 -3.07,0.34 -4.5,-0.83 -1.44,-1.17 -2.67,-3.5 -3.49,-6.17 -0.82,-2.66 -1.23,-5.66 -2.05,-8 -0.82,-2.33 -2.05,-4 -3.48,-5.16 -1.44,-1.17 -3.08,-1.84 -4.72,-1 -1.64,0.83 -3.28,3.16 -4.3,5.33 -1.03,2.17 -1.44,4.17 -1.85,5.83 -0.41,1.67 -0.82,3 -1.02,4.67 -0.21,1.67 -0.21,3.67 0.41,5.17 0.61,1.5 1.84,2.5 4.1,3.33 2.25,0.83 5.53,1.5 7.79,2 2.25,0.5 3.48,0.83 4.75,1.42 1.26,0.58 2.56,1.41 4.4,2.08z"/>
     <path class="fil4 str0" d="M2570.76 613.58c1.85,0.66 2.26,1.66 2.26,3.33 0,1.67 -0.41,4 -1.44,6 -1.02,2 -2.66,3.67 -4.71,5 -2.05,1.33 -4.51,2.33 -6.97,2.67 -2.46,0.33 -4.92,0 -6.56,-1.17 -1.64,-1.16 -2.46,-3.17 -2.25,-5.17 0.2,-1.99 1.43,-4 3.48,-6 2.05,-1.99 4.92,-4 8,-4.83 3.07,-0.83 6.35,-0.5 8.19,0.17z"/>
     <path class="fil3 str1" d="M2619.95 711.26c-12.66,1.98 -25.31,3.97 -35.61,4.19 -10.29,0.22 -18.23,-1.31 -24.46,-3.77 -6.24,-2.46 -10.77,-5.84 -14.17,-9.68 -3.4,-3.84 -5.67,-8.14 -6.23,-13.05 -0.57,-4.92 0.56,-10.45 2.07,-14.13 1.52,-3.69 3.4,-5.54 5.29,-7.38"/>
    </g>
   </g>
  </g>
  <g id="_2251996422272">
   <path class="fil5" d="M-322.44 387.05c-0.15,10.12 -0.8,30.4 -0.39,40.94 0.41,10.53 1.88,11.33 7.63,12.64 5.75,1.31 15.77,3.14 24.08,4.23 8.31,1.1 14.89,1.46 20.82,0.39 5.93,-1.06 11.2,-3.55 16.49,-7.4 5.29,-3.86 10.59,-9.08 14.78,-16.22 4.19,-7.14 7.26,-16.21 8.2,-24.58 0.93,-8.37 -0.26,-16.05 -2.32,-23.68 -2.06,-7.63 -4.98,-15.21 -8.01,-21.39 -3.04,-6.19 -6.21,-10.98 -9,-14.34 -2.8,-3.37 -5.23,-5.32 -7.74,-7.21 -2.52,-1.89 -5.12,-3.72 -7.72,-5.55 -2.61,-1.82 -5.21,-3.66 -7.64,-4.84 -2.44,-1.19 -4.72,-1.73 -7.3,-2.11 -2.58,-0.38 -5.46,-0.59 -8.03,-0.38 -2.56,0.2 -4.81,0.83 -6.96,1.51 -2.16,0.69 -4.24,1.44 -5.92,3.01 -1.68,1.56 -2.97,3.94 -3.64,6.43 -0.67,2.5 -0.72,5.1 -0.31,8.2 0.42,3.1 1.3,6.69 2.64,9.65 1.33,2.96 3.12,5.29 4.61,7.54 1.48,2.25 2.67,4.43 3.35,6.29 0.67,1.85 0.82,3.38 0.61,4.75 -0.22,1.38 -0.8,2.6 -1.93,3.9 -1.13,1.29 -2.82,2.65 -5.81,3.8 -2.98,1.15 -7.28,2.09 -11,2.78 -3.72,0.7 -6.87,1.14 -8.28,1.35 -1.4,0.2 -1.06,0.17 -1.21,10.29z"/>
   <g>
    <path class="fil3 str1" d="M-323.88 437.73c23.3,6.42 46.6,12.85 64.09,4.89 17.48,-7.95 29.15,-30.29 29.9,-50.2 0.75,-19.92 -9.42,-37.42 -16,-47.17 -6.58,-9.75 -9.58,-11.75 -9.08,-15.08 0.5,-3.34 4.5,-8 4.33,-9.34 -0.17,-1.33 -4.5,0.67 -6.83,1 -2.34,0.34 -2.67,-1 -4.84,-5.83 -2.16,-4.83 -6.16,-13.17 -8,-15.5 -1.83,-2.33 -1.5,1.33 -2,4.67 -0.5,3.33 -1.83,6.33 -2.83,8.16 -1,1.84 -1.67,2.5 -3.5,2.84 -1.83,0.33 -4.83,0.33 -8,0.66 -3.17,0.34 -6.5,1 -9,2.17 -2.5,1.17 -4.17,2.83 -5.67,5 -1.5,2.17 -2.83,4.83 -3.33,7.83 -0.5,3 -0.17,6.34 1,10 1.17,3.67 3.17,7.67 5,10.84 1.83,3.16 3.5,5.5 4.33,7.83 0.84,2.33 0.84,4.67 -0.33,6.83 -1.17,2.17 -3.5,4.17 -6,5.5 -2.5,1.34 -5.17,2 -8.92,2.59 -3.75,0.58 -8.58,1.08 -13.42,1.58"/>
    <g>
     <path class="fil2 str0" d="M-271.59 299.61c-0.64,0.61 -0.92,2.84 -1.19,5.22 -0.28,2.39 -0.56,4.95 -1.31,6.95 -0.75,2 -1.98,3.45 -2.59,4.17 -0.61,0.72 -0.61,0.72 3.25,3.44 3.87,2.73 11.59,8.17 15.61,10.98 4.03,2.8 4.36,2.97 4.51,2.31 0.16,-0.65 0.14,-2.12 0.6,-3.71 0.45,-1.59 1.37,-3.3 2.01,-4.6 0.65,-1.29 1.03,-2.16 0.67,-2.58 -0.37,-0.42 -1.48,-0.4 -2.62,-0.23 -1.14,0.17 -2.3,0.47 -3.28,0.49 -0.98,0.01 -1.77,-0.27 -2.58,-1.25 -0.81,-0.97 -1.62,-2.63 -2.66,-4.78 -1.03,-2.15 -2.27,-4.78 -3.13,-6.86 -0.86,-2.09 -1.34,-3.62 -2.05,-4.89 -0.71,-1.27 -1.66,-2.27 -2.63,-3.27 -0.97,-1 -1.97,-2 -2.61,-1.39z"/>
     <path class="fil2 str0" d="M-252.77 333.37c0.33,-0.83 3.81,-0.35 7.39,0.56 3.57,0.9 7.24,2.24 10.24,3.57 3,1.33 5.33,2.67 7.33,3.83 2,1.17 3.67,2.17 4,3.67 0.34,1.5 -0.66,3.5 -2,4.67 -1.33,1.16 -3,1.5 -5.53,0.78 -2.52,-0.72 -5.91,-2.49 -8.75,-4.66 -2.83,-2.16 -5.11,-4.73 -7.65,-7.08 -2.55,-2.36 -5.37,-4.51 -5.03,-5.34z"/>
     <path class="fil2 str0" d="M-299.21 320.41c-1.5,0.66 -3.44,1.16 -5.42,1.08 -1.97,-0.08 -3.97,-0.75 -5.47,-2.08 -1.5,-1.34 -2.5,-3.34 -3,-5.34 -0.5,-2 -0.5,-4 0,-5.33 0.5,-1.33 1.5,-2 2.83,-1.67 1.34,0.34 3.01,1.67 4.34,2.67 1.33,1 2.33,1.67 3.5,2 1.17,0.33 2.5,0.33 3.67,-0.83 1.16,-1.17 2.16,-3.5 2.83,-6.17 0.66,-2.67 1,-5.67 1.67,-8 0.66,-2.33 1.66,-4 2.83,-5.17 1.17,-1.16 2.5,-1.83 3.83,-1 1.34,0.84 2.67,3.17 3.5,5.34 0.83,2.16 1.17,4.16 1.5,5.83 0.34,1.67 0.67,3 0.84,4.67 0.16,1.66 0.16,3.66 -0.34,5.16 -0.5,1.5 -1.5,2.5 -3.33,3.34 -1.83,0.83 -4.5,1.5 -6.34,2 -1.83,0.5 -2.83,0.83 -3.86,1.41 -1.02,0.59 -2.08,1.42 -3.58,2.09z"/>
     <path class="fil4 str0" d="M-283.31 330.83c-1.5,0.67 -1.83,1.67 -1.83,3.34 0,1.66 0.33,4 1.17,6 0.83,2 2.16,3.66 3.83,5 1.67,1.33 3.67,2.33 5.67,2.66 2,0.34 4,0 5.33,-1.16 1.33,-1.17 2,-3.17 1.83,-5.17 -0.16,-2 -1.16,-4 -2.83,-6 -1.67,-2 -4,-4 -6.5,-4.83 -2.5,-0.84 -5.17,-0.5 -6.67,0.16z"/>
     <path class="fil3 str1" d="M-323.3 428.51c10.29,1.99 20.58,3.97 28.95,4.2 8.38,0.22 14.83,-1.32 19.89,-3.77 5.07,-2.46 8.76,-5.84 11.53,-9.68 2.76,-3.84 4.6,-8.14 5.06,-13.06 0.47,-4.91 -0.46,-10.44 -1.69,-14.13 -1.22,-3.69 -2.76,-5.53 -4.3,-7.37"/>
    </g>
   </g>
  </g>
  <path class="fil3 str3" d="M117.92 127.96l1764.83 0c48.17,0 87.57,39.41 87.57,87.58l0 190.57 -0.12 13.77 0.12 1.12 0 871.35c0,48.16 -39.4,87.57 -87.57,87.57l-1764.83 0c-48.16,0 -87.57,-39.41 -87.57,-87.57l0 -1076.81c0,-48.17 39.41,-87.58 87.57,-87.58z"/>
  <path class="fil3" d="M1360 540.71c2.5,-3.76 46.76,-90.83 61.38,-113.45"/>
  <path class="fil3" d="M1571.32 446.8c-3.22,-1.19 -69.31,-34.53 -88.45,-41.89"/>
  <path class="fil3" d="M1255.39 252.97c3.04,1.24 65.4,35.8 83.45,43.43"/>
  <path class="fil3" d="M1404.06 156.33c0.38,3.74 -0.57,85.09 1.41,107.43"/>
  <path class="fil3" d="M1516.91 144.49c-2.85,4.2 -53.38,101.43 -70.08,126.7"/>
  <path class="fil3" d="M1559.79 252.97c-2.9,1.24 -62.46,35.8 -79.7,43.43"/>
  <path class="fil3" d="M1255.4 262.56c3.04,1.33 65.39,38.47 83.45,46.68"/>
  <path class="fil3" d="M1516.92 145.96c-2.85,4.51 -53.38,109.02 -70.08,136.17"/>
  <path class="fil3" d="M1559.8 262.56c-2.91,1.33 -62.46,38.47 -79.71,46.68"/>
 </g>
</svg>
