<svg xmlns="http://www.w3.org/2000/svg" width="50" zoomAndPan="magnify" viewBox="0 0 37.5 37.499999" height="50" preserveAspectRatio="xMidYMid meet" version="1.0"><defs><g/><clipPath id="43b58bf15e"><path d="M 20.8125 2.21875 L 31.914062 2.21875 L 31.914062 35.527344 L 20.8125 35.527344 Z M 20.8125 2.21875 " clip-rule="nonzero"/></clipPath></defs><g clip-path="url(#43b58bf15e)"><path fill="#ffffff" d="M 28.550781 3.730469 C 28.878906 3.730469 29.207031 3.828125 29.492188 4.015625 C 30.046875 4.386719 30.339844 5.050781 30.242188 5.714844 C 28.929688 14.449219 28.621094 23.34375 29.324219 32.148438 C 29.402344 33.101562 28.699219 33.929688 27.757812 34.007812 C 27.710938 34.011719 27.664062 34.015625 27.617188 34.015625 C 26.734375 34.015625 25.988281 33.328125 25.914062 32.425781 C 25.308594 24.847656 25.429688 17.207031 26.277344 9.652344 C 26.007812 9.964844 25.753906 10.285156 25.519531 10.617188 C 25.183594 11.089844 24.660156 11.339844 24.125 11.339844 C 23.78125 11.339844 23.433594 11.234375 23.128906 11.015625 C 22.363281 10.457031 22.1875 9.378906 22.738281 8.605469 C 24.042969 6.769531 25.742188 5.171875 27.652344 3.984375 C 27.925781 3.816406 28.238281 3.730469 28.550781 3.730469 M 28.550781 2.21875 C 27.953125 2.21875 27.371094 2.386719 26.867188 2.699219 C 24.792969 3.992188 22.941406 5.726562 21.523438 7.726562 C 21.023438 8.429688 20.824219 9.285156 20.960938 10.136719 C 21.101562 10.992188 21.5625 11.738281 22.257812 12.242188 C 22.804688 12.640625 23.453125 12.851562 24.125 12.851562 C 24.238281 12.851562 24.351562 12.84375 24.460938 12.832031 C 23.914062 19.386719 23.898438 26.007812 24.421875 32.546875 C 24.554688 34.21875 25.957031 35.523438 27.617188 35.523438 C 27.703125 35.523438 27.789062 35.519531 27.878906 35.515625 C 28.730469 35.445312 29.507812 35.042969 30.0625 34.386719 C 30.617188 33.726562 30.886719 32.890625 30.816406 32.027344 C 30.121094 23.339844 30.425781 14.5625 31.71875 5.941406 C 31.90625 4.699219 31.355469 3.449219 30.320312 2.757812 C 29.792969 2.40625 29.179688 2.21875 28.550781 2.21875 Z M 28.550781 2.21875 " fill-opacity="1" fill-rule="nonzero"/></g><path fill="#000000" d="M 27.617188 34.015625 C 26.734375 34.015625 25.988281 33.332031 25.914062 32.425781 C 25.308594 24.847656 25.429688 17.207031 26.273438 9.652344 C 26.007812 9.964844 25.753906 10.285156 25.515625 10.621094 C 24.964844 11.394531 23.898438 11.570312 23.128906 11.015625 C 22.363281 10.460938 22.1875 9.382812 22.738281 8.605469 C 24.042969 6.769531 25.742188 5.171875 27.652344 3.988281 C 28.21875 3.632812 28.9375 3.644531 29.492188 4.015625 C 30.050781 4.386719 30.339844 5.050781 30.242188 5.714844 C 28.929688 14.449219 28.621094 23.34375 29.324219 32.148438 C 29.402344 33.101562 28.699219 33.929688 27.757812 34.007812 C 27.710938 34.011719 27.664062 34.015625 27.617188 34.015625 Z M 27.617188 34.015625 " fill-opacity="1" fill-rule="nonzero"/><path stroke-linecap="butt" transform="matrix(0.785587, 0, 0, 0.785587, 3.700658, 0.388251)" fill="none" stroke-linejoin="miter" d="M 17.09327 20.782671 C 17.749627 20.782671 18.207087 21.046208 18.465652 21.573282 C 18.719244 22.100357 18.7093 22.622458 18.44079 23.14456 C 18.172281 23.666662 17.719792 23.930199 17.09327 23.930199 L 11.797667 23.930199 L 11.797667 29.225802 C 11.797667 29.877186 11.53413 30.334647 11.012028 30.588239 C 10.489926 30.846804 9.962852 30.846804 9.440751 30.588239 C 8.918649 30.334647 8.655112 29.877186 8.655112 29.225802 L 8.655112 23.930199 L 3.359508 23.930199 C 2.703152 23.930199 2.245691 23.666662 1.987127 23.14456 C 1.733534 22.622458 1.733534 22.100357 1.987127 21.573282 C 2.245691 21.046208 2.703152 20.782671 3.359508 20.782671 L 8.655112 20.782671 L 8.655112 15.487068 C 8.655112 14.830711 8.918649 14.378223 9.440751 14.119659 C 9.962852 13.866066 10.489926 13.866066 11.012028 14.119659 C 11.53413 14.378223 11.797667 14.830711 11.797667 15.487068 L 11.797667 20.782671 Z M 17.09327 20.782671 " stroke="#ffffff" stroke-width="2.739165" stroke-opacity="1" stroke-miterlimit="4"/><g fill="#000000" fill-opacity="1"><g transform="translate(3.700658, 29.454964)"><g><path d="M 13.421875 -12.734375 C 13.941406 -12.734375 14.300781 -12.523438 14.5 -12.109375 C 14.695312 -11.703125 14.691406 -11.289062 14.484375 -10.875 C 14.273438 -10.46875 13.921875 -10.265625 13.421875 -10.265625 L 9.265625 -10.265625 L 9.265625 -6.109375 C 9.265625 -5.585938 9.054688 -5.226562 8.640625 -5.03125 C 8.234375 -4.832031 7.820312 -4.832031 7.40625 -5.03125 C 7 -5.226562 6.796875 -5.585938 6.796875 -6.109375 L 6.796875 -10.265625 L 2.640625 -10.265625 C 2.117188 -10.265625 1.757812 -10.46875 1.5625 -10.875 C 1.363281 -11.289062 1.363281 -11.703125 1.5625 -12.109375 C 1.757812 -12.523438 2.117188 -12.734375 2.640625 -12.734375 L 6.796875 -12.734375 L 6.796875 -16.890625 C 6.796875 -17.410156 7 -17.769531 7.40625 -17.96875 C 7.820312 -18.175781 8.234375 -18.175781 8.640625 -17.96875 C 9.054688 -17.769531 9.265625 -17.410156 9.265625 -16.890625 L 9.265625 -12.734375 Z M 13.421875 -12.734375 "/></g></g></g></svg>